<svg width="136" height="47" viewBox="0 0 136 47" fill="none" xmlns="http://www.w3.org/2000/svg">
<path d="M55.3793 23.2902C55.5338 22.1066 55.6494 21.0879 55.8015 20.0754C56.4845 15.5256 54.6614 11.9694 51.1819 9.28817C47.6738 6.58516 42.7226 6.8071 39.2292 9.52921C37.6555 10.7557 36.4207 12.2744 35.4113 13.986C33.5803 17.0909 31.9901 20.2958 31.2555 23.8621C31.235 23.9608 31.1819 24.0532 31.0948 24.2713C30.8808 23.9683 30.7187 23.7442 30.5617 23.5161C28.9389 21.1615 27.1165 18.9864 24.8412 17.2274C23.3703 16.0901 21.7725 15.2208 19.8895 14.9924C17.197 14.666 15.0213 15.7695 13.7323 18.1736C12.8413 19.8363 12.3801 21.6344 12.2729 23.5162C12.1972 24.8432 12.161 26.172 12.1038 27.5C12.0972 27.6546 12.0696 27.8077 12.0428 28.0407C11.7755 27.853 11.5644 27.7058 11.3534 27.5573C10.2044 26.7502 8.96756 26.1893 7.54426 26.0542C5.2049 25.8308 3.22883 26.9546 2.30314 29.1326C1.44704 31.1452 1.20421 33.2398 1.69781 35.3788C1.9899 36.6431 2.34309 37.8973 2.75138 39.1287C3.40254 41.0954 4.7374 42.6281 6.10348 44.1238C7.49501 45.6477 6.84402 45.4975 9.06176 45.4755C16.3209 45.4048 23.58 45.3015 30.8388 45.1855C35.9976 45.1032 41.1561 45.0037 46.3138 44.8639C49.0241 44.7909 51.7318 44.6106 54.4405 44.4877C55.3942 44.4443 56.3499 44.4053 57.304 44.4111C57.8129 44.414 58.1707 44.1963 58.4637 43.8286C58.645 43.6003 58.8056 43.3539 58.9572 43.1039C61.364 39.1373 63.0518 34.8744 64.0937 30.3636C64.5325 28.4645 64.6691 26.5227 64.2396 24.5893C64.0031 23.5263 63.4972 22.595 62.6841 21.8592C61.5409 20.8253 60.2185 20.4615 58.7816 21.1043C57.9175 21.4908 57.131 22.0545 56.3216 22.5581C56.0345 22.7367 55.7831 22.9733 55.3793 23.2902ZM13.3275 43.564C12.7161 43.5759 12.4025 43.6056 11.8756 43.5341C10.9448 43.4079 10.0029 43.4006 9.06876 43.5011C8.18627 43.5962 7.56676 43.2596 7.09566 42.6411C5.41636 40.4363 4.14476 38.0513 3.65794 35.275C3.34705 33.5028 3.37248 31.7872 4.00368 30.0957C4.62944 28.4202 5.97996 27.6674 7.73333 28.0305C9.19693 28.3341 10.376 29.1106 11.3215 30.255C11.5419 30.5214 11.7452 30.8016 11.9637 31.0694C12.277 31.4541 12.6754 31.6513 13.1603 31.465C13.6103 31.2922 13.7739 30.9059 13.7661 30.4393C13.7646 30.3595 13.7694 30.2796 13.764 30.1999C13.6324 28.0922 13.8741 26.004 14.1254 23.9202C14.3261 22.253 14.6799 20.6121 15.4506 19.0999C16.4138 17.2104 17.9967 16.3917 20.0587 16.8324C20.9512 17.0233 21.8468 17.373 22.6397 17.8276C24.4884 18.8867 25.9521 20.4143 27.2065 22.1095C28.295 23.5812 29.2481 25.1525 30.2573 26.6826C30.6172 27.2273 30.9875 27.7877 31.752 27.6663C32.5292 27.5426 32.6883 26.8914 32.8208 26.2491C32.8313 26.1972 32.8354 26.1435 32.8446 26.0916C33.6068 21.8403 35.3093 17.9717 37.6154 14.3474C38.4364 13.057 39.4283 11.921 40.6535 10.9976C42.5452 9.57144 44.655 9.0899 46.976 9.55117C50.7867 10.3091 52.6853 12.9917 53.7672 16.4237C53.9992 17.1612 54.0343 18.0116 53.9504 18.7871C53.7539 20.6062 53.5787 22.4351 53.0339 24.2022C52.8801 24.7001 52.8104 25.2518 52.8358 25.7717C52.8866 26.8096 53.8588 27.2906 54.727 26.7234C55.1003 26.4792 55.3946 26.1179 55.7428 25.8308C56.7257 25.0212 57.6658 24.1442 58.719 23.4386C60.2255 22.4293 61.3764 22.8437 62.0761 24.5151C62.1672 24.733 62.2323 24.9616 62.2789 25.1924C62.648 27.0363 62.3909 28.854 61.9383 30.6372C60.9786 34.416 59.5718 38.0267 57.6327 41.4158C56.7126 43.0236 55.6644 43.2355 53.977 42.5844C54.853 41.0056 55.7232 39.4244 56.607 37.8505C56.8366 37.4419 56.9137 37.2041 56.7803 36.9756C56.5769 36.6271 56.0883 36.59 55.7929 36.8645C55.707 36.9447 55.6224 37.0275 55.543 37.1146C54.1413 38.6512 52.8996 40.3061 51.8872 42.127C51.7323 42.4052 51.6119 42.6782 51.2022 42.69C49.4217 42.7405 47.6419 42.8236 45.8616 42.8812C45.6165 42.8892 45.3687 42.8192 45.1126 42.7834C45.1328 42.5723 45.132 42.465 45.1542 42.3624C46.0622 38.1836 46.3228 33.9465 46.2687 29.6843C46.2609 29.0491 46.1604 28.4145 46.1034 27.7796C46.0684 27.3889 45.8845 27.0949 45.4733 27.0933C45.0761 27.0921 44.9611 27.4155 44.9268 27.7565C44.906 27.9676 44.9127 28.1814 44.8887 28.3926C44.5829 31.0579 44.2912 33.7249 43.9604 36.3875C43.696 38.5188 43.3829 40.6441 43.0786 42.8637L30.1531 43.1147C29.9874 42.6742 29.8004 42.181 29.6164 41.6866C28.3963 38.3977 27.209 35.0948 25.5847 31.9746C25.267 31.3653 24.8835 30.7834 24.4724 30.232C24.2692 29.9595 23.9338 29.7853 23.6556 29.5647C23.241 29.9807 23.2077 30.3728 23.3118 30.7673C23.5288 31.5874 23.72 32.4214 24.0252 33.2098C25.2319 36.3323 26.4799 39.4399 27.7095 42.5537C27.7907 42.7596 27.846 42.9756 27.9289 43.2352L15.7916 43.4708C15.6125 43.157 15.4703 42.8373 15.2677 42.5628C13.6572 40.383 12.0372 38.2103 10.4123 36.0415C10.3048 35.8981 10.146 35.7766 9.98661 35.6916C9.5969 35.4834 9.28611 35.5903 9.19591 36.009C9.14552 36.2417 9.18537 36.5506 9.30489 36.7546C10.5556 38.8852 11.8316 41.0007 13.0993 43.1215C13.1615 43.2314 13.2141 43.3459 13.3275 43.564Z" fill="currentColor"/>
<path d="M126.672 31.6677C127.578 31.7057 128.376 31.6721 129.153 31.7845C131.524 32.1274 134.159 34.4876 133.959 37.2171C133.842 38.8287 133.43 40.3845 132.437 41.6853C131.781 42.544 131.018 43.3433 130.203 44.0548C128.707 45.3614 126.844 45.5874 124.955 45.5325C121.5 45.4324 118.047 45.2716 114.593 45.1351C109.996 44.9533 105.4 44.7408 100.802 44.5979C96.8697 44.4752 92.9347 44.438 89.0005 44.3498C88.2575 44.3333 87.5168 44.246 86.7739 44.2104C86.2396 44.1842 85.8824 43.9091 85.6235 43.4696C85.5561 43.3549 85.4842 43.2407 85.4364 43.118C84.2292 39.9985 82.8449 36.9284 82.5512 33.5387C82.4028 31.8213 82.1379 30.0928 82.54 28.3793C82.7274 27.5821 82.9692 26.7833 83.3033 26.0383C84.2725 23.8771 86.7035 21.9906 90.0005 23.5754C90.4208 23.777 90.8264 24.0094 91.3702 24.2973C91.1261 23.4903 90.9258 22.8123 90.7151 22.1377C90.3185 20.8668 89.9472 19.5893 89.9198 18.2464C89.8761 16.1181 90.2019 14.0616 91.1933 12.1486C92.1366 10.3282 93.5892 9.22429 95.6495 8.91323C97.0853 8.69676 98.3581 9.03126 99.4503 9.94026C100.323 10.6669 101.116 11.4905 102.027 12.3498C102.039 12.0589 102.052 11.7879 102.062 11.5168C102.135 9.53719 102.527 7.63103 103.19 5.75604C105.258 -0.0886421 112.188 0.625552 114.872 3.67849C117.3 6.44151 118.608 9.58437 118.503 13.2712C118.453 15.0453 118.318 16.8166 118.221 18.6131C118.329 18.5697 118.512 18.4988 118.694 18.424C120.565 17.6526 122.483 17.2353 124.527 17.5082C127.306 17.8796 129.165 19.8252 129.5 22.6136C129.809 25.1797 128.933 27.426 127.822 29.6298C127.491 30.2849 127.101 30.9113 126.672 31.6677ZM121.705 43.2583C121.907 43.3294 121.979 43.372 122.055 43.3784C123.511 43.5008 124.967 43.6232 126.425 43.7328C126.577 43.7443 126.746 43.699 126.89 43.6399C129.499 42.5768 131.297 40.7935 131.807 37.939C132.136 36.1011 131.301 34.6246 129.545 33.9625C128.916 33.7253 128.194 33.6049 127.524 33.6375C126.715 33.6771 125.914 33.9221 125.116 34.104C124.661 34.2076 124.266 34.1546 123.959 33.7878C123.656 33.4249 123.637 33.0114 123.82 32.589C123.915 32.37 124.03 32.1595 124.149 31.9517C124.664 31.0526 125.23 30.1786 125.691 29.2517C126.245 28.1369 126.741 26.9903 127.207 25.8348C127.656 24.7195 127.62 23.552 127.451 22.3762C127.256 21.0212 126.475 20.1725 125.239 19.6958C124.404 19.3739 123.541 19.2955 122.652 19.4052C120.727 19.6427 118.923 20.1274 117.609 21.694C117.494 21.8317 117.274 22.0231 117.125 22.1229C116.788 22.349 116.425 22.4929 116.05 22.2082C115.7 21.9424 115.587 21.576 115.708 21.1447C115.759 20.966 115.822 20.7865 115.842 20.6034C116.127 17.9605 116.445 15.3234 116.446 12.6552C116.448 9.64842 115.321 7.11314 113.369 4.91126C111.965 3.32658 110.129 2.99531 108.123 3.29716C106.228 3.58192 105.387 4.97532 104.756 6.58078C104.648 6.85863 104.499 7.32199 104.428 7.61166C103.89 9.80306 103.676 12.0164 104.039 14.2673C104.174 15.1068 104.321 15.9448 104.425 16.7881C104.476 17.2062 104.483 17.6397 104.432 18.0568C104.385 18.4534 104.11 18.7212 103.708 18.8149C103.278 18.915 102.908 18.7973 102.661 18.4246C102.516 18.2058 102.416 17.9556 102.313 17.7117C101.972 16.9038 101.67 16.0784 101.298 15.2846C100.626 13.8462 99.693 12.5951 98.4909 11.5485C97.6778 10.8404 96.7786 10.5714 95.6889 10.7774C94.1663 11.0657 93.2385 12.012 92.68 13.3559C91.7888 15.5 91.4884 17.7422 92.1599 19.9849C92.8441 22.2723 93.7077 24.5059 94.4922 26.7629C94.5966 27.0625 94.728 27.3568 94.7911 27.6655C94.8717 28.0612 94.7487 28.4036 94.3737 28.6154C93.8423 28.9158 93.3719 28.6277 92.9643 28.0777C92.6348 27.6326 92.2206 27.2549 91.7242 27.0092C90.9092 26.6051 90.2972 25.842 89.514 25.3658C87.7314 24.2822 85.9801 24.7844 85.0325 26.6437C84.4943 27.6996 84.1451 28.8364 84.2328 30.0221C84.3628 31.7674 84.5432 33.5148 84.8196 35.242C85.1796 37.4921 86.2901 39.5041 87.0048 41.6432C87.1848 42.1824 87.4737 42.3772 88.0464 42.3718C89.8809 42.3548 91.7156 42.3953 93.5507 42.409C93.6714 42.4096 93.7926 42.3699 93.9857 42.3365C93.8906 42.029 93.8172 41.7812 93.7368 41.5363C93.4559 40.6779 93.1504 39.8262 92.9005 38.9589C92.7772 38.5314 92.7038 38.0734 92.707 37.6301C92.7071 37.6275 92.7072 37.6243 92.7073 37.6218C92.7175 37.1206 93.3643 36.9037 93.6994 37.2768C94.2817 37.9261 94.541 38.7063 94.8987 39.4113C95.3879 40.3768 95.8177 41.3731 96.266 42.3388L102.712 42.609C102.69 42.3391 102.692 42.1565 102.658 41.98C102.483 41.0672 102.31 40.154 102.114 39.2448C101.227 35.1363 100.476 31.0085 100.403 26.7897C100.393 26.1873 100.49 25.578 100.594 24.9818C100.623 24.8188 100.85 24.588 100.998 24.5776C101.149 24.5674 101.399 24.7586 101.463 24.9185C101.676 25.4571 101.888 26.0098 101.99 26.5769C102.218 27.858 102.35 29.1561 102.576 30.4371C103.121 33.5231 103.702 36.6029 104.259 39.6868C104.437 40.6712 104.583 41.6619 104.732 42.5793L108.681 42.7449C109.746 40.6759 110.736 38.7054 111.769 36.7583C113.002 34.4351 114.261 32.125 115.537 29.824C115.778 29.3907 116.128 29.0098 116.472 28.6466C116.593 28.5188 116.889 28.4188 117.024 28.4813C117.156 28.5424 117.263 28.837 117.242 29.0118C117.189 29.4549 117.111 29.9104 116.948 30.3227C116.586 31.2366 116.195 32.1422 115.764 33.0244C114.267 36.0791 112.747 39.1219 111.238 42.171C111.138 42.3738 111.056 42.5857 110.95 42.8285C111.128 42.8724 111.228 42.9156 111.329 42.9198C113.747 43.0122 116.166 43.1073 118.585 43.1754C118.784 43.1812 119.048 43.0453 119.179 42.8898C120.695 41.0934 122.44 39.5353 124.209 38.0019C124.586 37.6752 125.029 37.419 125.465 37.1715C125.598 37.096 125.895 37.0879 125.966 37.174C126.078 37.3097 126.15 37.5893 126.083 37.7392C125.87 38.2204 125.648 38.7216 125.316 39.1217C124.334 40.3086 123.298 41.4511 122.282 42.6097C122.113 42.8084 121.938 42.9991 121.705 43.2583Z" fill="currentColor"/>
</svg>
