<svg width="40" height="37" viewBox="0 0 40 37" fill="none" xmlns="http://www.w3.org/2000/svg">
<path d="M22.7995 9.54324C24.0365 8.39124 25.0905 7.18225 26.3655 6.29125C27.4655 5.52325 28.7725 4.96324 30.0675 4.57924C35.0965 3.09224 38.7625 6.96824 39.5535 10.4142C40.2965 13.6532 39.7685 16.7392 38.1945 19.6002C35.4205 24.6422 31.9145 29.1082 27.3345 32.6592C25.1045 34.3882 22.5155 35.4542 19.9235 36.4782C18.3115 37.1152 16.7815 36.5342 15.3965 35.7142C13.8225 34.7822 12.2875 33.7722 10.8065 32.6982C8.27853 30.8652 6.35652 28.4652 4.67952 25.8562C2.72652 22.8172 1.21253 19.5832 0.487534 16.0322C-0.223466 12.5452 -0.0544723 9.13225 1.88753 6.01524C5.34953 0.458245 12.4655 -0.762754 17.4625 2.87525C19.6055 4.43525 21.0905 6.51524 22.3705 8.78024C22.5105 9.02924 22.6495 9.27824 22.7995 9.54324ZM31.9475 24.3752C34.1115 21.6302 35.7595 18.8812 36.4125 15.6882C36.6895 14.3342 36.7325 12.8522 36.5055 11.4902C35.9955 8.42924 33.4615 6.95525 30.4925 7.77825C28.6995 8.27525 27.2685 9.35024 26.1325 10.7592C25.1195 12.0162 24.2685 13.4042 23.3605 14.7432C22.9845 15.2982 22.5535 15.7112 21.8195 15.5222C21.1335 15.3452 20.9955 14.7982 20.9085 14.1872C20.3855 10.4912 18.5075 7.57324 15.5855 5.34924C12.5355 3.02724 8.28153 3.43624 5.54753 6.14124C2.83553 8.82624 2.27253 12.0942 3.19753 15.5922C4.10253 19.0152 5.49052 22.2872 7.51552 25.2262C8.26552 26.3142 9.16553 27.3132 10.0865 28.2662C12.1995 30.4512 14.8805 31.8312 17.4925 33.2942C17.7965 33.4642 18.2335 33.5772 18.5565 33.4992C19.8005 33.2002 21.1135 32.9902 22.2395 32.4262C26.1635 30.4572 29.3155 27.5162 31.9475 24.3752Z" fill="currentColor"/>
</svg>
