<svg width="82" height="88" viewBox="0 0 82 88" fill="none" xmlns="http://www.w3.org/2000/svg">
<path d="M40.1723 22.7896C41.6096 22.9325 43.4531 23.0492 45.2758 23.3097C48.8225 23.8162 51.6176 25.6932 53.7388 28.4801C57.9821 34.0567 58.7554 40.2149 56.3385 46.744C55.0703 50.1704 52.6253 52.7584 49.7759 54.9329C47.3237 56.8054 44.5313 58.0473 41.5056 58.6904C37.1547 59.6149 33.2198 58.448 29.8042 55.8203C22.2268 49.9922 20.405 41.418 24.2503 33.3728C25.9726 29.7691 28.6862 27.0392 31.8712 24.7352C33.1439 23.8144 34.6056 23.2979 36.1615 23.1125C37.3564 22.9705 38.5622 22.9153 40.1723 22.7896ZM25.2851 41.4225C25.3575 42.2836 25.3267 43.1692 25.5185 44.0032C26.8228 49.6747 30.1815 53.5978 35.6612 55.615C37.0461 56.1242 38.5169 56.2699 40.004 56.0166C44.3631 55.2748 47.9116 53.1609 50.9473 49.9515C55.3552 45.2913 56.627 36.205 51.263 29.9536C49.5018 27.9012 47.3327 26.4213 44.572 26.0894C42.3342 25.8207 40.0827 25.6697 37.8367 25.4716C37.6893 25.4589 34.6997 26.3716 33.569 27.1242C31.4958 28.5045 29.7057 30.2576 28.2927 32.3353C26.4312 35.0707 25.2399 38.0395 25.2851 41.4225Z" fill="currentColor"/>
<path d="M59.3896 64.3231C59.6429 64.4733 60.1748 64.6542 60.5176 65.0142C63.3181 67.9613 66.1376 70.8993 68.266 74.3981C68.5917 74.9336 68.816 75.5613 68.9426 76.1764C69.0042 76.4767 68.8196 76.948 68.5826 77.1479C68.4144 77.2899 67.9096 77.2067 67.6654 77.0511C67.1001 76.6902 66.5257 76.2913 66.0888 75.7911C63.5153 72.8422 60.9753 69.8635 58.438 66.883C58.2001 66.6035 57.9912 66.2589 57.8917 65.9097C57.6484 65.0558 58.2806 64.2815 59.3896 64.3231Z" fill="currentColor"/>
<path d="M34.4359 85.6327C34.4232 86.1808 34.2848 86.7579 34.0686 87.2627C33.7457 88.0189 33.0537 88.0867 32.5933 87.4128C32.3274 87.0239 32.1455 86.5345 32.0678 86.0668C31.4798 82.5346 31.2925 78.9769 31.5114 75.4003C31.5413 74.9128 31.5757 74.4252 31.6336 73.9413C31.7566 72.9264 32.3717 72.2959 33.184 72.3276C34.0162 72.3601 34.6114 73.015 34.6303 74.029C34.6466 74.8911 34.5553 75.7549 34.5408 76.6188C34.5254 77.7079 34.4793 83.7186 34.4359 85.6327Z" fill="currentColor"/>
<path d="M1.66239 65.7541C0.765069 65.7605 0.208767 65.4538 0.0423287 64.8957C-0.115064 64.3674 0.168963 63.6456 0.852807 63.3064C1.68862 62.8912 2.57508 62.5511 3.47331 62.2951C6.25572 61.5 9.04989 60.7483 11.8477 60.0111C12.3832 59.87 12.9612 59.7877 13.5084 59.8293C14.0946 59.8736 14.5993 60.2092 14.6952 60.8587C14.7793 61.4313 14.4944 61.8763 14.0195 62.1902C13.8323 62.3141 13.6315 62.4236 13.4261 62.514C9.78168 64.1069 5.9147 64.9147 2.04863 65.7261C1.90391 65.7559 1.74922 65.7478 1.66239 65.7541Z" fill="currentColor"/>
<path d="M72.6785 15.2917C73.0656 15.5016 73.669 15.631 73.8236 15.9675C73.9792 16.3067 73.7929 16.9127 73.5667 17.2872C73.327 17.6834 72.9073 18.0253 72.4903 18.2515C69.5161 19.8625 66.532 21.4554 63.5289 23.0121C62.6379 23.4744 61.8337 23.2591 61.4222 22.6042C60.9844 21.9059 61.2177 21.0764 62.0409 20.4495C62.2498 20.2903 62.4733 20.1447 62.7066 20.0262C65.4212 18.6458 68.1322 17.2592 70.8603 15.9068C71.3895 15.6445 71.9865 15.5215 72.6785 15.2917Z" fill="currentColor"/>
<path d="M72.8515 43.8431C74.9636 44.148 77.2268 44.4564 79.4828 44.8164C79.9505 44.8906 80.4317 45.0914 80.8288 45.3519C81.6329 45.8793 81.5389 46.7078 80.6424 47.0751C80.2698 47.228 79.8356 47.3238 79.4358 47.3049C76.0591 47.1447 72.6842 46.9593 69.3102 46.7558C68.9483 46.7341 68.5757 46.5839 68.2464 46.4184C67.5626 46.0747 67.255 45.4641 67.4007 44.8644C67.5535 44.2339 68.0429 43.8639 68.8461 43.8504C70.1234 43.8277 71.4006 43.8431 72.8515 43.8431Z" fill="currentColor"/>
<path d="M11.9928 36.1589C11.4004 35.9834 10.9589 35.8857 10.5419 35.7238C7.98566 34.7315 5.4312 33.7338 2.88488 32.7143C2.25983 32.4638 1.6393 32.1734 1.07305 31.8125C0.278847 31.3051 0.0364387 30.5416 0.359365 29.8921C0.665105 29.2779 1.40773 28.9288 2.21188 29.2553C5.33984 30.5244 8.65413 31.353 11.5659 33.1359C12.039 33.4253 12.522 33.7772 12.8377 34.2168C13.0647 34.5334 13.2077 35.1413 13.0512 35.4443C12.8703 35.7944 12.3194 35.9554 11.9928 36.1589Z" fill="currentColor"/>
<path d="M46.3271 10.2696C46.5641 7.45102 46.7649 4.90469 47.0028 2.36289C47.0472 1.88619 47.1955 1.40588 47.3782 0.960834C47.6143 0.385537 48.0928 0.0852225 48.726 0.153969C49.3547 0.222715 49.7545 0.606246 49.8784 1.22225C49.9517 1.58588 49.9996 1.97213 49.9635 2.33847C49.7066 4.87665 49.484 7.42117 49.1186 9.94488C48.9883 10.844 48.5831 11.7431 48.1308 12.5446C47.7238 13.2655 47.0924 13.1968 46.802 12.4161C46.518 11.6581 46.442 10.8223 46.3271 10.2696Z" fill="currentColor"/>
<path d="M25.1487 13.0267C25.1016 13.242 25.0736 13.5487 24.9668 13.8236C24.7489 14.3854 24.3346 14.56 23.8018 14.2479C23.4246 14.0272 23.0546 13.7169 22.8131 13.3578C22.3952 12.7382 22.0524 12.0625 21.7258 11.3868C21.089 10.0661 20.4821 8.7301 19.8688 7.39769C19.7277 7.09104 19.573 6.78169 19.4943 6.45695C19.3487 5.85542 19.5278 5.32083 20.0325 4.95901C20.5544 4.58452 21.1171 4.67498 21.6128 5.02414C21.8832 5.2141 22.1347 5.46918 22.3111 5.74778C23.5919 7.76584 24.4522 9.96572 25.0636 12.2687C25.1197 12.4849 25.1152 12.7165 25.1487 13.0267Z" fill="currentColor"/>
</svg>
