<svg width="66" height="78" viewBox="0 0 66 78" fill="none" xmlns="http://www.w3.org/2000/svg">
<path d="M33.2327 24.6645C34.9451 23.7786 36.6264 22.8237 38.3781 22.0244C41.104 20.7801 43.9549 19.944 46.9934 20.1163C47.9098 20.1685 48.8558 20.3689 49.7104 20.7016C52.4924 21.7839 53.3631 24.5386 51.7909 27.0913C51.0581 28.2803 50.0472 29.1934 48.867 29.9238C47.2315 30.9363 45.4324 31.5465 43.5885 32.0371C40.194 32.9415 36.7218 33.008 33.2463 32.8982C31.2869 32.8356 29.3331 32.616 27.1444 32.4492C25.0423 35.6128 22.8167 38.9632 20.5903 42.3136C20.6544 42.3745 20.7186 42.4354 20.7835 42.4964C21.0585 42.2927 21.3399 42.0963 21.6085 41.8839C24.1099 39.9028 26.762 38.1799 29.8358 37.2138C31.7246 36.6198 33.6351 36.2245 35.6474 36.5292C38.7677 37.0014 40.271 39.5244 39.1398 42.4827C38.702 43.6268 37.9949 44.5905 37.1355 45.4475C34.2573 48.3161 30.7249 49.8818 26.758 50.427C23.7098 50.8463 20.6312 50.8391 17.5646 50.4871C17.1373 50.4382 16.714 50.3492 16.1143 50.2506C14.8965 52.6325 13.6643 55.0417 12.4328 57.4501C12.4889 57.4958 12.545 57.5415 12.6012 57.5872C12.8705 57.422 13.1431 57.2617 13.4093 57.0909C15.5475 55.7224 17.8508 54.802 20.3843 54.4909C21.8041 54.3161 23.1871 54.4621 24.5212 54.9664C26.8253 55.8378 27.417 58.0482 25.8665 59.9571C25.0768 60.9296 24.1091 61.6976 22.9995 62.2684C19.888 63.8679 16.5753 64.6976 13.0774 64.6848C11.9157 64.6808 10.7556 64.4796 9.47847 64.3569C9.37344 64.5461 9.20107 64.785 9.09765 65.052C7.80928 68.3799 6.53293 71.7119 5.25018 75.0422C5.01046 75.6636 4.80122 76.3017 4.50138 76.8942C4.14301 77.6013 3.57539 77.8731 3.05988 77.6879C2.54598 77.5035 2.33674 76.96 2.50591 76.155C3.2018 72.8415 4.3739 69.6819 5.6759 66.5721C6.96426 63.4942 8.33601 60.4517 9.67168 57.394C9.81759 57.0604 9.96189 56.7269 10.1367 56.3269C9.7807 56.181 9.48809 56.0126 9.17381 55.9404C7.68421 55.6005 6.50248 54.7443 5.43138 53.7173C2.20605 50.6266 0.502386 46.7936 0.0253616 42.3954C-0.0451898 41.746 0.0381954 41.0517 0.192126 40.4119C0.741305 38.1278 2.98372 36.9445 5.26141 37.6973C6.80873 38.2088 7.96882 39.259 8.983 40.4792C10.3724 42.1492 11.2575 44.0918 11.8468 46.1626C12.1835 47.3476 12.3991 48.5662 12.6677 49.7704C12.731 50.0558 12.7896 50.342 12.8906 50.8206C14.7281 47.5576 16.4743 44.4558 18.1659 41.4517C17.2335 40.1305 16.2482 38.9119 15.4585 37.5778C13.839 34.8407 12.4697 31.9842 11.8708 28.819C11.5213 26.9678 11.3617 25.1151 11.7658 23.2519C12.0255 22.0557 12.5122 20.9686 13.3772 20.0811C14.9711 18.4455 17.0635 18.2732 18.8971 19.6313C20.0884 20.514 20.8405 21.731 21.4185 23.0627C22.5105 25.5793 22.9129 28.2466 23.0652 30.9588C23.1173 31.8816 23.0733 32.81 23.0733 33.9572C23.3635 33.5876 23.5238 33.396 23.6713 33.194C25.2852 30.9821 26.8854 28.7605 28.5177 26.563C28.852 26.1132 28.9354 25.7669 28.6861 25.2177C27.0514 21.6179 26.208 17.8282 26.0773 13.8765C25.9755 10.8011 26.406 7.81952 27.6094 4.9702C28.1089 3.78766 28.7663 2.71257 29.7371 1.85233C32.2241 -0.350805 35.3292 0.381153 36.5141 3.48141C37.4096 5.82404 37.6309 8.28052 37.5844 10.7675C37.5507 12.5705 37.3535 14.352 36.8628 16.1558C37.1795 15.7991 37.4898 15.4375 37.8121 15.0871C41.7117 10.8532 46.0602 7.19339 51.2714 4.65754C53.501 3.57201 55.8228 2.73019 58.2897 2.37503C59.7183 2.16899 61.1598 2.12732 62.5404 2.66126C63.0647 2.8641 63.5874 3.11343 64.0492 3.43091C65.801 4.63429 66.282 6.39327 65.2117 8.2212C64.6858 9.11913 63.9298 9.93767 63.1216 10.6039C60.7734 12.5401 57.9337 13.4652 55.0347 14.1667C52.0739 14.8835 49.0554 15.2635 46.0025 15.1625C44.8769 15.1256 43.7384 14.9701 42.6433 14.7111C41.9899 14.5564 41.5714 14.6406 41.1521 15.1296C38.9353 17.7144 36.7025 20.2855 34.485 22.8686C34.0095 23.4226 33.5742 24.0103 33.1204 24.5819C33.1557 24.61 33.1942 24.6372 33.2327 24.6645ZM30.688 23.8283C31.1289 23.1148 31.4769 22.6273 31.7447 22.1006C32.2433 21.1209 32.6979 20.1187 33.1661 19.1238C34.8642 15.5161 35.6691 11.7343 35.184 7.75379C35.0285 6.47825 34.7078 5.19068 34.2436 3.99371C33.769 2.77109 32.5231 2.53298 31.541 3.40285C30.9814 3.89831 30.4836 4.53489 30.1565 5.20513C29.7059 6.1255 29.3764 7.11963 29.1118 8.11377C28.2363 11.4064 28.448 14.7248 28.9956 18.0391C29.3098 19.9472 29.8871 21.7807 30.688 23.8283ZM17.8019 48.3C17.8765 48.3473 17.9294 48.4099 17.9775 48.4059C21.1042 48.195 24.2582 48.1621 27.3504 47.7116C30.4387 47.2618 33.199 45.854 35.4165 43.5843C36.009 42.9774 36.5245 42.2318 36.8653 41.4573C37.4217 40.193 36.9093 39.2727 35.5496 39.0169C34.7768 38.871 33.9494 38.8421 33.1701 38.9415C31.064 39.2125 29.0942 39.9413 27.243 40.9803C23.8108 42.9053 20.8581 45.4627 17.9374 48.0595C17.8725 48.118 17.846 48.2199 17.8019 48.3ZM29.4517 30.1282C29.4678 30.2268 29.4838 30.3246 29.499 30.4233C31.0576 30.4233 32.6161 30.4249 34.1747 30.4233C36.9101 30.42 39.6432 30.3896 42.3234 29.7354C44.2058 29.276 46.0915 28.7773 47.7045 27.6685C48.4822 27.1338 49.2102 26.4323 49.7433 25.657C50.5089 24.5434 50.1273 23.5285 48.9087 22.9801C48.548 22.8181 48.1575 22.7139 47.7719 22.6153C46.5076 22.2914 45.2489 22.4862 44.0054 22.7283C38.4439 23.8107 33.8845 26.8492 29.4517 30.1282ZM43.9653 12.706C44.1633 12.7525 44.2579 12.7886 44.3549 12.795C48.1864 13.0516 51.952 12.6138 55.6456 11.6141C57.8391 11.0208 59.9853 10.256 61.806 8.8321C62.3744 8.38795 62.906 7.84838 63.31 7.25511C63.8552 6.45339 63.7093 5.77193 62.8643 5.31736C62.1788 4.94857 61.3907 4.6888 60.6203 4.57976C59.2477 4.38494 57.8952 4.67277 56.5804 5.08245C51.8751 6.548 47.8528 9.18086 44.1649 12.3781C44.0976 12.4366 44.0655 12.5377 43.9653 12.706ZM19.3148 39.5092C19.9978 38.6281 19.9962 38.6281 20.2801 36.9853C20.8669 33.5917 20.826 30.2012 20.1366 26.8315C19.7742 25.0581 19.2538 23.3224 17.9927 21.9362C16.7228 20.5412 15.3006 20.6864 14.4756 22.3796C14.1076 23.1348 13.908 24.0295 13.8639 24.8737C13.7236 27.5988 14.3906 30.1851 15.6036 32.6031C16.7501 34.8904 18.0216 37.1152 19.3148 39.5092ZM10.5015 54.6288C10.5616 54.0933 10.6073 53.8648 10.6097 53.6355C10.6498 50.3829 10.0212 47.261 8.70239 44.2898C8.04337 42.8058 7.11339 41.4974 5.79456 40.5225C5.3464 40.1914 4.82607 39.9172 4.29693 39.7473C3.48479 39.4867 2.70473 39.8723 2.457 40.6885C2.28783 41.2457 2.21086 41.8831 2.29344 42.4563C2.84743 46.3174 4.43404 49.6766 7.37716 52.2974C8.28551 53.1072 9.33095 53.7638 10.5015 54.6288ZM10.9071 62.1442C10.9312 62.2283 10.9544 62.3133 10.9785 62.3975C12.1009 62.339 13.2265 62.3149 14.3449 62.2147C17.0283 61.9742 19.6154 61.3416 21.999 60.0565C22.6924 59.6829 23.3362 59.169 23.8998 58.615C24.6967 57.8333 24.5444 57.2929 23.4396 57.0147C22.6732 56.8223 21.849 56.6772 21.0705 56.7454C16.9264 57.1102 13.6682 59.1778 10.9071 62.1442Z" fill="currentColor"/>
</svg>
