<svg width="1920" height="698" viewBox="0 0 1920 698" fill="none" xmlns="http://www.w3.org/2000/svg">
<mask id="mask0_162_145" style="mask-type:alpha" maskUnits="userSpaceOnUse" x="-48" y="0" width="1986" height="698">
<rect x="-47.5898" y="0.575195" width="1984.87" height="696.596" fill="#D9D9D9"/>
</mask>
<g mask="url(#mask0_162_145)">
<path d="M170.12 92.395C91.4101 40.4796 -20.3756 27.5008 -66.4297 27.5009V343.598C427.603 379.883 1393.48 427.333 1304.72 326.852C1193.77 201.25 1017.93 155.196 879.769 178.223C741.607 201.25 592.979 134.262 530.178 134.262C467.377 134.262 268.508 157.289 170.12 92.395Z" fill="#82CFC9" stroke="#382E2C" stroke-width="2"/>
<path d="M689.936 261.531L638.288 267.164L653.74 169.261L689.936 261.531Z" fill="#163F2D" stroke="#382E2C" stroke-width="2"/>
<path d="M734.923 253.619L697.424 257.709L708.644 186.629L734.923 253.619Z" fill="#163F2D" stroke="#382E2C" stroke-width="2"/>
<path d="M778.817 254.664L741.16 256.864L755.938 186.437L778.817 254.664Z" fill="#163F2D" stroke="#382E2C" stroke-width="2"/>
<path d="M998.597 255.015L961.124 250.688L987.826 183.865L998.597 255.015Z" fill="#163F2D" stroke="#382E2C" stroke-width="2"/>
<path d="M1029.27 259.68L1002.66 256.608L1021.62 209.158L1029.27 259.68Z" fill="#163F2D" stroke="#382E2C" stroke-width="2"/>
<path fill-rule="evenodd" clip-rule="evenodd" d="M1997.64 194.033C2008.25 176.741 2014.37 156.394 2014.37 134.619C2014.37 71.7889 1963.44 20.8553 1900.61 20.8553C1841.89 20.8553 1793.57 65.3348 1787.49 122.436C1777.71 119.695 1767.39 118.229 1756.73 118.229C1732.81 118.229 1710.62 125.611 1692.3 138.22C1672.89 103.267 1635.59 79.6136 1592.78 79.6136C1543.05 79.6136 1500.78 111.515 1485.31 155.967C1473.88 152.108 1461.63 150.016 1448.9 150.016C1395.14 150.016 1350.09 187.306 1338.2 237.431C1327.22 233.9 1315.51 231.993 1303.35 231.993C1240.52 231.993 1189.59 282.926 1189.59 345.756C1189.59 406.715 1237.53 456.475 1297.77 459.385L1298.33 461.192H1997.64V194.033Z" fill="#FDF8E6"/>
<path d="M1997.64 194.033L1996.79 193.51L1996.64 193.751V194.033H1997.64ZM1787.49 122.436L1787.22 123.399L1788.36 123.718L1788.48 122.542L1787.49 122.436ZM1692.3 138.22L1691.43 138.706L1691.96 139.668L1692.87 139.044L1692.3 138.22ZM1485.31 155.967L1484.99 156.914L1485.93 157.231L1486.25 156.295L1485.31 155.967ZM1338.2 237.431L1337.9 238.383L1338.93 238.714L1339.18 237.662L1338.2 237.431ZM1297.77 459.385L1298.73 459.088L1298.52 458.42L1297.82 458.386L1297.77 459.385ZM1298.33 461.192L1297.38 461.488L1297.6 462.192H1298.33V461.192ZM1997.64 461.192V462.192H1998.64V461.192H1997.64ZM1998.49 194.556C2009.2 177.111 2015.37 156.584 2015.37 134.619H2013.37C2013.37 156.204 2007.31 176.37 1996.79 193.51L1998.49 194.556ZM2015.37 134.619C2015.37 71.2366 1963.99 19.8553 1900.61 19.8553V21.8553C1962.89 21.8553 2013.37 72.3412 2013.37 134.619H2015.37ZM1900.61 19.8553C1841.38 19.8553 1792.63 64.726 1786.49 122.33L1788.48 122.542C1794.51 65.9437 1842.41 21.8553 1900.61 21.8553V19.8553ZM1787.76 121.473C1777.89 118.708 1767.48 117.229 1756.73 117.229V119.229C1767.3 119.229 1777.52 120.682 1787.22 123.399L1787.76 121.473ZM1756.73 117.229C1732.6 117.229 1710.21 124.676 1691.73 137.397L1692.87 139.044C1711.02 126.546 1733.02 119.229 1756.73 119.229V117.229ZM1693.17 137.735C1673.59 102.477 1635.97 78.6136 1592.78 78.6136V80.6136C1635.22 80.6136 1672.18 104.058 1691.43 138.706L1693.17 137.735ZM1592.78 78.6136C1542.62 78.6136 1499.97 110.796 1484.36 155.638L1486.25 156.295C1501.59 112.233 1543.49 80.6136 1592.78 80.6136V78.6136ZM1485.63 155.019C1474.1 151.126 1461.74 149.016 1448.9 149.016V151.016C1461.52 151.016 1473.66 153.09 1484.99 156.914L1485.63 155.019ZM1448.9 149.016C1394.67 149.016 1349.22 186.634 1337.23 237.2L1339.18 237.662C1350.96 187.977 1395.62 151.016 1448.9 151.016V149.016ZM1338.51 236.479C1327.43 232.916 1315.61 230.993 1303.35 230.993V232.993C1315.4 232.993 1327.01 234.883 1337.9 238.383L1338.51 236.479ZM1303.35 230.993C1239.97 230.993 1188.59 282.374 1188.59 345.756H1190.59C1190.59 283.478 1241.07 232.993 1303.35 232.993V230.993ZM1188.59 345.756C1188.59 407.251 1236.95 457.449 1297.72 460.384L1297.82 458.386C1238.11 455.502 1190.59 406.179 1190.59 345.756H1188.59ZM1299.29 460.896L1298.73 459.088L1296.82 459.681L1297.38 461.488L1299.29 460.896ZM1997.64 460.192H1298.33V462.192H1997.64V460.192ZM1996.64 194.033V461.192H1998.64V194.033H1996.64Z" fill="#382E2C"/>
<path d="M868.474 241.024C604.363 241.024 326.352 317.78 220.36 356.159V645.042H1539.18V395.932C1425.66 344.296 1132.59 241.024 868.474 241.024Z" fill="#7CBD82" stroke="#382E2C" stroke-width="2"/>
<path d="M1327.55 402.191L1241.51 415.592L1259.86 250.491L1327.55 402.191Z" fill="#163F2D" stroke="#382E2C" stroke-width="2"/>
<path d="M1388.01 376.322L1332.67 384.941L1344.47 278.747L1388.01 376.322Z" fill="#163F2D" stroke="#382E2C" stroke-width="2"/>
<path d="M1778.63 325.465L1723.29 334.085L1735.09 227.89L1778.63 325.465Z" fill="#163F2D" stroke="#382E2C" stroke-width="2"/>
<path d="M1835.51 307.782L1790.1 314.854L1799.79 227.721L1835.51 307.782Z" fill="#163F2D" stroke="#382E2C" stroke-width="2"/>
<path d="M1721.42 341.914L1635.38 355.314L1653.73 190.213L1721.42 341.914Z" fill="#163F2D" stroke="#382E2C" stroke-width="2"/>
<path d="M2.44659 271.403C-8.33053 290.649 -12.3082 301.233 -12.9499 304.12C-11.3461 308.611 -9.10089 318.554 -12.9499 322.403C-16.7989 326.252 182.39 324.007 282.466 322.403C282.145 312.46 275.153 291.033 249.749 284.875C217.994 277.177 217.994 295.46 202.598 292.573C187.202 289.686 192.975 288.724 169.881 257.931C146.786 227.139 136.201 245.422 124.654 257.931C113.107 270.441 102.522 292.573 75.5786 264.667C48.6351 236.762 15.918 247.346 2.44659 271.403Z" fill="#163F2D" stroke="#382E2C" stroke-width="2"/>
<path d="M1432.42 355.816C1164.47 390.984 744.398 490.489 567.858 535.845V623.766H1953.66V288.828C1891.56 296.504 1700.37 320.647 1432.42 355.816Z" fill="#163F2D" stroke="#382E2C" stroke-width="2"/>
<path d="M322.936 328.945C117.786 270.331 -30.8426 305.918 -47.5898 305.918V674.349H1107.95V559.215C896.516 544.561 528.085 387.559 322.936 328.945Z" fill="#56B186" stroke="#382E2C" stroke-width="2"/>
<path d="M1011.65 494.32C631.496 501.019 128.95 614.34 -74.8037 670.163V712.03H2014.37V628.295C1838.53 580.846 1391.81 487.622 1011.65 494.32Z" fill="#7CBD82" stroke="#382E2C" stroke-width="2"/>
</g>
</svg>
