<svg width="232" height="232" viewBox="0 0 232 232" fill="none" xmlns="http://www.w3.org/2000/svg">
<path d="M206.225 203.44H199.459C199.42 203.44 199.385 203.464 199.366 203.498L189.93 222.673C189.895 222.743 189.946 222.821 190.022 222.821H194.954C194.994 222.821 195.031 222.798 195.047 222.761L196.375 219.911H196.354L198.392 215.522H198.408L201.917 208H202.337L203.171 215.409C203.178 215.469 203.129 215.522 203.069 215.522H200.533C200.491 215.522 200.452 215.547 200.438 215.586L198.794 219.77C198.768 219.837 198.817 219.911 198.888 219.911H203.573C203.626 219.911 203.67 219.95 203.675 220.003L203.977 222.731C203.982 222.784 204.028 222.824 204.079 222.824H208.877C208.939 222.824 208.988 222.768 208.978 222.706L206.329 203.531C206.322 203.48 206.278 203.443 206.227 203.443L206.225 203.44Z" fill="currentColor"/>
<path d="M106.92 152.761C106.34 152.41 105.756 151.978 105.472 151.338C105.331 151.02 105.273 150.657 105.067 150.371C104.873 150.096 104.555 149.922 104.224 149.858C103.889 149.793 103.522 149.837 103.249 150.04C103.044 150.193 102.958 150.387 102.924 150.602C102.887 150.819 102.908 151.057 102.903 151.288C102.896 151.925 102.891 152.563 102.887 153.198C102.887 153.323 102.887 153.448 102.931 153.561C102.995 153.727 103.145 153.843 103.245 153.988C103.559 154.427 103.406 155.044 103.57 155.561C103.704 155.965 104.03 156.282 104.402 156.49C105.044 156.848 105.85 157.026 106.567 157.139C107.449 157.275 108.421 157.194 109.006 156.434C109.579 155.684 109.151 154.79 108.606 154.157C108.126 153.6 107.537 153.15 106.918 152.766L106.92 152.761Z" fill="currentColor"/>
<path d="M208.708 31.4541C194.338 10.4701 169.041 3.66712 146.045 10.6641C123.049 17.6565 115.807 41.2185 115.807 41.2185C115.807 41.2185 108.565 17.6565 85.5668 10.6641C62.5708 3.66712 37.274 10.4701 22.9035 31.4541C8.52834 52.4381 12.5524 101.403 44.174 138.199C75.7955 174.991 115.805 198.444 115.805 198.444C115.805 198.444 155.814 174.991 187.436 138.199C219.057 101.403 223.081 52.4381 208.706 31.4541H208.708ZM122.663 53.3991C124.188 48.9547 127.329 46.6539 127.801 46.3259C127.84 46.2982 127.881 46.2774 127.93 46.2728C129.926 45.954 134.818 47.5964 136.264 48.1C136.465 48.1716 136.671 48.0237 136.676 47.8089C136.756 43.9581 138.494 42.9186 139.789 40.0542C140.914 37.5617 141.668 32.3804 141.882 30.768C141.915 30.5347 142.19 30.4169 142.379 30.5578C143.259 31.2231 145.359 33.3044 147.602 39.0956C150.457 46.476 146.634 51.565 146.391 51.8745C146.385 51.8861 146.375 51.8976 146.368 51.9115L142.291 59.1487C142.243 59.2365 142.238 59.3474 142.284 59.4398L150.115 75.5127C150.217 75.7229 150.062 75.9655 149.833 75.9655H134.409C134.389 75.9655 134.373 75.9655 134.354 75.9609C133.954 75.8846 129.115 74.896 125.47 70.2136C121.658 65.3256 121.014 58.2131 122.668 53.3991H122.663ZM149.709 85.9401C149.612 86.6169 149.02 88.2986 145.696 90.4561C141.836 92.9555 135.313 93.2073 133.864 93.2304C133.703 93.2351 133.573 93.1057 133.573 92.944V87.3515C133.573 87.2429 133.633 87.1413 133.73 87.0928L136.576 85.649C136.616 85.6282 136.662 85.6167 136.706 85.6167H149.42C149.593 85.6167 149.729 85.7691 149.706 85.9401H149.709ZM81.4966 75.5127L89.3275 59.4398C89.3714 59.3474 89.3668 59.2388 89.3206 59.1487L85.2434 51.9115C85.2365 51.8999 85.2273 51.8884 85.2203 51.8745C84.9778 51.565 81.1547 46.476 84.0099 39.0956C86.2529 33.3044 88.3527 31.2254 89.2328 30.5578C89.4222 30.4169 89.6971 30.5347 89.7295 30.768C89.9443 32.3804 90.6973 37.5617 91.8223 40.0542C93.1159 42.9163 94.8554 43.9581 94.9362 47.8089C94.9408 48.0237 95.1464 48.1716 95.3474 48.1C96.7958 47.5964 101.686 45.954 103.682 46.2728C103.73 46.2774 103.77 46.2959 103.811 46.3259C104.282 46.6516 107.424 48.9547 108.949 53.3991C110.603 58.2131 109.956 65.3279 106.147 70.2136C102.501 74.896 97.662 75.8823 97.2624 75.9609C97.2416 75.9655 97.2254 75.9655 97.2069 75.9655H81.7831C81.5521 75.9655 81.3996 75.7229 81.5012 75.5127H81.4966ZM98.0339 87.3515V92.944C98.0339 93.1057 97.9045 93.2351 97.7429 93.2304C96.2945 93.2073 89.771 92.9555 85.911 90.4561C82.5892 88.2986 81.9956 86.6169 81.8986 85.9401C81.8755 85.7714 82.0117 85.6167 82.185 85.6167H94.8992C94.9431 85.6167 94.987 85.6282 95.0286 85.649L97.8745 87.0928C97.9715 87.1413 98.0316 87.2429 98.0316 87.3515H98.0339ZM162.072 148.483C160.785 149.197 147.639 156.513 139.034 162.657C130.598 168.682 117.738 180.569 116.017 182.165C116.017 182.165 116.01 182.172 115.994 182.189C115.95 182.228 115.86 182.306 115.805 182.302C115.749 182.302 115.648 182.216 115.62 182.193L115.615 182.189L115.588 182.161C113.853 180.548 101.002 168.677 92.5754 162.655C83.9706 156.511 70.8244 149.195 69.5378 148.481C69.4823 148.453 69.4684 148.379 69.51 148.331C70.2354 147.391 76.2067 139.537 78.6345 130.62C81.0046 121.909 83.735 108.021 84.1739 105.764C84.1947 105.667 84.3264 105.651 84.368 105.744C85.121 107.437 88.9417 115.993 90.7066 119.437C92.61 123.154 97.267 130.713 97.5419 131.156C97.5534 131.172 97.5581 131.184 97.5581 131.205L98.1309 146.321C98.1309 146.349 98.124 146.37 98.1078 146.39C97.8907 146.64 96.3245 148.483 96.5024 149.955C96.6964 151.535 98.8886 158.262 99.3252 159.765C99.3298 159.772 99.3298 159.782 99.3298 159.788L99.4268 161.872V161.893C99.4661 162.038 100.032 164.034 102.97 164.175C103.072 164.18 103.116 164.05 103.035 163.993C102.527 163.614 101.474 162.738 101.293 161.835C101.055 160.639 101.104 160.133 100.838 159.391C100.577 158.65 98.1563 150.863 98.0847 149.883C98.0201 148.959 99.3668 146.915 99.5331 146.672C99.5446 146.651 99.5493 146.635 99.5446 146.617L99.2259 131.2C99.2213 131.179 99.2213 131.168 99.2097 131.151C98.9556 130.715 94.6775 123.424 92.2173 118.497C89.6763 113.42 88.7662 111.985 87.1353 108.248C85.6754 104.894 83.4024 97.102 82.9542 95.5381C82.9265 95.4503 83.0258 95.3718 83.1067 95.4296C84.1069 96.111 88.1679 98.7121 92.4044 99.0031C96.3569 99.2734 97.5973 99.3427 97.93 99.3589C97.99 99.3589 98.0339 99.315 98.0339 99.2549V93.3829C98.0339 93.3113 98.1055 93.2582 98.1748 93.2859C98.8031 93.5515 101.49 94.8105 104.502 97.9475C107.886 101.473 108.849 106.719 108.886 106.929V146.192C108.886 146.224 108.902 146.252 108.93 146.273L115.745 151.221C115.761 151.232 115.777 151.253 115.777 151.276H115.832C115.832 151.253 115.849 151.232 115.865 151.221L122.679 146.273C122.707 146.252 122.723 146.224 122.723 146.192V106.929C122.76 106.719 123.723 101.473 127.108 97.9475C130.12 94.8105 132.806 93.5515 133.435 93.2859C133.504 93.2582 133.576 93.309 133.576 93.3829V99.2549C133.576 99.315 133.619 99.3589 133.68 99.3589C134.01 99.3427 135.253 99.2734 139.205 99.0031C143.444 98.7121 147.505 96.111 148.503 95.4296C148.584 95.3741 148.685 95.4503 148.655 95.5381C148.207 97.102 145.934 104.894 144.474 108.248C142.846 111.985 141.933 113.422 139.394 118.497C136.934 123.424 132.656 130.715 132.402 131.151C132.391 131.168 132.391 131.179 132.386 131.2L132.067 146.617C132.063 146.638 132.067 146.654 132.079 146.672C132.245 146.915 133.592 148.959 133.527 149.883C133.455 150.863 131.035 158.65 130.774 159.391C130.508 160.133 130.556 160.636 130.318 161.835C130.136 162.738 129.085 163.614 128.577 163.993C128.496 164.048 128.54 164.177 128.641 164.175C131.582 164.034 132.146 162.038 132.185 161.893V161.872L132.282 159.788C132.282 159.788 132.282 159.772 132.287 159.765C132.723 158.262 134.915 151.535 135.109 149.955C135.287 148.483 133.723 146.64 133.504 146.39C133.488 146.37 133.481 146.351 133.481 146.321L134.054 131.205C134.054 131.184 134.058 131.172 134.07 131.156C134.345 130.713 139.002 123.156 140.905 119.437C142.672 115.993 146.491 107.437 147.244 105.744C147.283 105.651 147.417 105.667 147.438 105.764C147.877 108.024 150.607 121.911 152.977 130.62C155.405 139.537 161.376 147.391 162.102 148.331C162.141 148.379 162.129 148.451 162.074 148.481L162.072 148.483Z" fill="currentColor"/>
<path d="M128.72 153.196C128.715 152.558 128.713 151.921 128.704 151.285C128.699 151.054 128.72 150.819 128.683 150.599C128.646 150.384 128.563 150.193 128.357 150.038C128.082 149.837 127.715 149.793 127.382 149.855C127.052 149.92 126.733 150.093 126.539 150.368C126.334 150.655 126.278 151.017 126.135 151.336C125.853 151.978 125.269 152.408 124.687 152.759C124.065 153.143 123.476 153.593 122.998 154.15C122.453 154.783 122.025 155.679 122.598 156.427C123.183 157.19 124.155 157.27 125.038 157.132C125.756 157.019 126.562 156.841 127.202 156.483C127.574 156.277 127.9 155.958 128.034 155.554C128.2 155.039 128.045 154.42 128.359 153.981C128.461 153.836 128.609 153.72 128.674 153.554C128.718 153.441 128.718 153.316 128.718 153.191L128.72 153.196Z" fill="currentColor"/>
<path d="M34.2547 210.68C34.3055 210.68 34.3494 210.643 34.3564 210.592C34.8068 207.975 34.5181 206.095 33.4947 204.951C32.4575 203.792 30.5148 203.209 27.6689 203.209H26.9343C23.9105 203.209 21.6029 203.951 20.0136 205.434C18.4243 206.917 17.327 209.349 16.7311 212.729L16.5902 213.531C15.9896 216.91 16.2229 219.343 17.2878 220.826C18.3573 222.309 20.4017 223.05 23.4208 223.05H24.1554C27.0059 223.05 29.1519 222.468 30.6003 221.313C32.021 220.172 32.9773 218.282 33.4601 215.649C33.4716 215.586 33.4231 215.524 33.3584 215.524H28.7431C28.6946 215.524 28.653 215.561 28.6437 215.61C28.4451 216.668 28.0385 217.409 27.4241 217.834C26.7957 218.273 25.8556 218.492 24.5966 218.492C23.0558 218.492 22.081 218.123 21.6606 217.381C21.2402 216.64 21.2171 215.224 21.5844 213.136C21.9563 211.043 22.4807 209.627 23.1621 208.885C23.8482 208.144 24.957 207.774 26.4931 207.774C27.7521 207.774 28.6183 207.989 29.0942 208.416C29.5493 208.83 29.6971 209.543 29.5377 210.565C29.5285 210.627 29.5747 210.685 29.637 210.685H34.2524L34.2547 210.68Z" fill="currentColor"/>
<path d="M49.1359 203.44H42.3699C42.3307 203.44 42.296 203.464 42.2775 203.498L32.8412 222.673C32.8065 222.743 32.8573 222.821 32.9336 222.821H37.8654C37.9047 222.821 37.9417 222.798 37.9578 222.761L39.2861 219.911L41.3235 215.522L44.8278 208H45.2482L46.0821 215.409C46.089 215.469 46.0405 215.522 45.9805 215.522H43.4602C43.4187 215.522 43.3794 215.547 43.3655 215.586L41.7254 219.77C41.7 219.837 41.7485 219.911 41.8201 219.911H46.484C46.5372 219.911 46.5811 219.95 46.5857 220.003L46.8883 222.731C46.8929 222.784 46.9391 222.824 46.9899 222.824H51.7878C51.8502 222.824 51.8987 222.768 51.8894 222.706L49.2399 203.531C49.2329 203.48 49.189 203.443 49.1382 203.443L49.1359 203.44Z" fill="currentColor"/>
<path d="M65.733 203.5L59.1126 217.836C59.0687 217.931 58.9278 217.908 58.9162 217.804L57.3801 203.533C57.3755 203.48 57.3316 203.44 57.2784 203.44H52.2981C52.2357 203.44 52.1872 203.496 52.1964 203.556L54.7906 222.731C54.7975 222.782 54.8414 222.821 54.8922 222.821H61.5543C61.5935 222.821 61.6282 222.798 61.6467 222.764L71.0345 203.588C71.0668 203.519 71.0183 203.44 70.9421 203.44H65.8254C65.7862 203.44 65.7492 203.464 65.733 203.5Z" fill="currentColor"/>
<path d="M81.298 203.44H74.532C74.4928 203.44 74.4581 203.464 74.4396 203.498L65.0033 222.673C64.9686 222.743 65.0195 222.821 65.0957 222.821H70.0275C70.0668 222.821 70.1038 222.798 70.1199 222.761L71.4205 219.971C71.4366 219.934 71.4736 219.911 71.5129 219.911H76.3408C76.4008 219.911 76.447 219.86 76.4424 219.8L76.0936 215.616C76.089 215.563 76.0451 215.522 75.992 215.522H73.6473C73.5711 215.522 73.5226 215.443 73.5549 215.376L76.9899 208H77.4103L78.2581 215.522L78.7386 219.911L79.0504 222.729C79.055 222.782 79.1012 222.821 79.152 222.821H83.9499C84.0123 222.821 84.0608 222.766 84.0515 222.704L81.402 203.528C81.3951 203.477 81.3512 203.44 81.3003 203.44H81.298Z" fill="currentColor"/>
<path d="M91.1475 218.252L93.7509 203.561C93.7624 203.498 93.7139 203.44 93.6492 203.44H89.0362C88.9853 203.44 88.9438 203.475 88.9345 203.526L85.5388 222.701C85.5273 222.764 85.5758 222.821 85.6405 222.821H99.1655C99.2163 222.821 99.2579 222.787 99.2671 222.736L100.018 218.492C100.029 218.43 99.9809 218.372 99.9163 218.372H91.2491C91.1845 218.372 91.1359 218.315 91.1475 218.252Z" fill="currentColor"/>
<path d="M119.42 205.434C118.343 203.951 116.278 203.209 113.222 203.209H112.488C109.427 203.209 107.101 203.951 105.5 205.434C103.904 206.917 102.802 209.349 102.206 212.729L102.065 213.531C101.464 216.91 101.702 219.343 102.779 220.826C103.85 222.309 105.916 223.05 108.976 223.05H109.711C112.767 223.05 115.098 222.309 116.694 220.826C118.295 219.343 119.392 216.91 119.993 213.531L120.134 212.729C120.73 209.349 120.492 206.917 119.42 205.434ZM115.132 213.131C114.758 215.256 114.22 216.702 113.527 217.46C112.834 218.222 111.7 218.601 110.127 218.601C108.554 218.601 107.553 218.222 107.131 217.46C106.708 216.702 106.683 215.256 107.059 213.131C107.433 211.003 107.971 209.56 108.664 208.797C109.357 208.035 110.492 207.656 112.065 207.656C113.638 207.656 114.638 208.035 115.061 208.797C115.488 209.56 115.514 211.001 115.132 213.131Z" fill="currentColor"/>
<path d="M150.861 218.252L153.465 203.561C153.476 203.498 153.428 203.44 153.363 203.44H148.75C148.699 203.44 148.658 203.475 148.648 203.526L145.253 222.701C145.241 222.764 145.29 222.821 145.354 222.821H158.879C158.93 222.821 158.972 222.787 158.981 222.736L159.732 218.492C159.743 218.43 159.695 218.372 159.63 218.372H150.963C150.898 218.372 150.85 218.315 150.861 218.252Z" fill="currentColor"/>
<path d="M176.066 203.44H169.3C169.26 203.44 169.226 203.464 169.207 203.498L159.771 222.673C159.736 222.743 159.787 222.821 159.863 222.821H164.795C164.834 222.821 164.871 222.798 164.888 222.761L166.188 219.971C166.204 219.934 166.241 219.911 166.28 219.911H171.108C171.168 219.911 171.215 219.86 171.21 219.8L170.861 215.616C170.857 215.563 170.813 215.522 170.76 215.522H168.41C168.334 215.522 168.286 215.443 168.318 215.376L171.757 208H172.178L173.021 215.522L173.504 219.911L173.816 222.729C173.82 222.782 173.866 222.821 173.917 222.821H178.715C178.778 222.821 178.826 222.766 178.817 222.704L176.167 203.528C176.16 203.477 176.116 203.44 176.066 203.44Z" fill="currentColor"/>
<path d="M179.503 203.526L178.75 207.765C178.738 207.827 178.787 207.885 178.851 207.885H183.848C183.913 207.885 183.961 207.943 183.95 208.005L181.351 222.701C181.339 222.764 181.388 222.821 181.452 222.821H186.066C186.116 222.821 186.158 222.787 186.167 222.736L188.777 207.968C188.787 207.92 188.828 207.883 188.879 207.883H193.95C194 207.883 194.042 207.848 194.051 207.797L194.804 203.558C194.816 203.496 194.767 203.438 194.703 203.438H179.604C179.554 203.438 179.512 203.473 179.503 203.524V203.526Z" fill="currentColor"/>
<path d="M124.92 218.008L126.013 209.114C126.017 209.079 126.047 209.054 126.082 209.054H129.861C131.277 209.054 132.254 209.387 132.795 210.05C133.333 210.715 133.506 211.826 133.314 213.383L133.268 213.755C133.077 215.314 132.631 216.425 131.928 217.088C131.226 217.751 130.168 218.084 128.752 218.084H124.992C124.95 218.084 124.918 218.047 124.922 218.008H124.92ZM128.865 215.961C129.607 215.961 130.12 215.808 130.406 215.503C130.693 215.199 130.898 214.554 131.018 213.57C131.138 212.586 131.092 211.944 130.882 211.637C130.67 211.332 130.194 211.179 129.452 211.179H128.064C128.029 211.179 127.999 211.205 127.995 211.239L127.424 215.882C127.419 215.924 127.452 215.959 127.493 215.959H128.865V215.961Z" fill="currentColor"/>
<path d="M133.664 218.008L134.756 209.114C134.761 209.079 134.791 209.054 134.825 209.054H141.134C141.176 209.054 141.208 209.091 141.203 209.13L140.975 210.985C140.97 211.02 140.94 211.045 140.905 211.045H136.826C136.791 211.045 136.761 211.071 136.757 211.105L136.59 212.468C136.586 212.51 136.618 212.544 136.66 212.544H140.513C140.554 212.544 140.587 212.581 140.582 212.621L140.36 214.422C140.356 214.457 140.326 214.482 140.291 214.482H136.403C136.369 214.482 136.339 214.508 136.334 214.543L136.154 216.012C136.149 216.053 136.181 216.088 136.223 216.088H140.319C140.36 216.088 140.393 216.125 140.388 216.164L140.159 218.019C140.155 218.054 140.125 218.079 140.09 218.079H133.733C133.691 218.079 133.659 218.042 133.664 218.003V218.008Z" fill="currentColor"/>
</svg>
