<svg width="272" height="62" viewBox="0 0 272 62" fill="none" xmlns="http://www.w3.org/2000/svg">
<path d="M29.5514 46.6952C29.3677 46.5839 29.1825 46.447 29.0925 46.2443C29.0478 46.1433 29.0295 46.0284 28.9644 45.9376C28.9029 45.8505 28.8019 45.7956 28.6972 45.7751C28.5911 45.7546 28.4747 45.7685 28.3884 45.833C28.3232 45.8813 28.2961 45.9427 28.2851 46.0108C28.2734 46.0796 28.28 46.155 28.2786 46.2282C28.2764 46.4302 28.2749 46.6322 28.2734 46.8335C28.2734 46.873 28.2734 46.9126 28.2873 46.9484C28.3078 47.0011 28.3554 47.0377 28.3869 47.0838C28.4864 47.2229 28.4381 47.4183 28.4901 47.5823C28.5325 47.7104 28.6357 47.8106 28.7536 47.8765C28.9571 47.99 29.2125 48.0463 29.4394 48.0822C29.719 48.1254 30.0272 48.0998 30.2123 47.859C30.3939 47.6211 30.2584 47.3378 30.0857 47.1373C29.9335 46.9609 29.7468 46.8181 29.5507 46.6966L29.5514 46.6952Z" fill="currentColor"/>
<path d="M61.803 8.25838C57.2496 1.60947 49.2342 -0.54608 41.9478 1.67095C34.6613 3.88653 32.3667 11.3523 32.3667 11.3523C32.3667 11.3523 30.0721 3.88653 22.7849 1.67095C15.4985 -0.54608 7.48309 1.60947 2.92972 8.25838C-1.62512 14.9073 -0.350085 30.4221 9.66939 42.0812C19.6889 53.7387 32.366 61.17 32.366 61.17C32.366 61.17 45.0431 53.7387 55.0626 42.0812C65.0821 30.4221 66.3571 14.9073 61.8023 8.25838H61.803ZM34.5391 15.2118C35.0222 13.8035 36.0176 13.0745 36.1669 12.9706C36.1794 12.9618 36.1926 12.9552 36.2079 12.9538C36.8403 12.8527 38.3906 13.3732 38.8488 13.5327C38.9124 13.5554 38.9776 13.5086 38.979 13.4405C39.0047 12.2204 39.5551 11.891 39.9657 10.9834C40.3221 10.1936 40.5607 8.55189 40.6288 8.041C40.6391 7.96707 40.7262 7.92974 40.7862 7.97439C41.0651 8.18519 41.7304 8.84466 42.4411 10.6796C43.3458 13.0182 42.1344 14.6306 42.0576 14.7287C42.0554 14.7324 42.0524 14.736 42.0502 14.7404L40.7584 17.0336C40.743 17.0614 40.7415 17.0965 40.7562 17.1258L43.2374 22.2186C43.2696 22.2852 43.2206 22.3621 43.1481 22.3621H38.261C38.2544 22.3621 38.2493 22.3621 38.2434 22.3606C38.1168 22.3364 36.5834 22.0232 35.4284 20.5395C34.2207 18.9908 34.0165 16.7371 34.5406 15.2118H34.5391ZM43.1086 25.5226C43.0779 25.737 42.8905 26.2699 41.8372 26.9535C40.6142 27.7454 38.5472 27.8252 38.0883 27.8326C38.037 27.834 37.996 27.793 37.996 27.7418V25.9698C37.996 25.9354 38.0151 25.9032 38.0458 25.8878L38.9476 25.4303C38.96 25.4237 38.9746 25.4201 38.9885 25.4201H43.0171C43.072 25.4201 43.1152 25.4684 43.1079 25.5226H43.1086ZM21.4953 22.2186L23.9765 17.1258C23.9904 17.0965 23.989 17.0621 23.9743 17.0336L22.6825 14.7404C22.6803 14.7367 22.6774 14.7331 22.6752 14.7287C22.5983 14.6306 21.3869 13.0182 22.2916 10.6796C23.0023 8.84466 23.6677 8.18592 23.9465 7.97439C24.0065 7.92974 24.0936 7.96707 24.1039 8.041C24.172 8.55189 24.4106 10.1936 24.767 10.9834C25.1769 11.8902 25.7281 12.2204 25.7537 13.4405C25.7551 13.5086 25.8203 13.5554 25.884 13.5327C26.3429 13.3732 27.8924 12.8527 28.5248 12.9538C28.5402 12.9552 28.5526 12.9611 28.5658 12.9706C28.7151 13.0738 29.7105 13.8035 30.1936 15.2118C30.7177 16.7371 30.5127 18.9915 29.3058 20.5395C28.1508 22.0232 26.6174 22.3357 26.4907 22.3606C26.4842 22.3621 26.479 22.3621 26.4732 22.3621H21.586C21.5128 22.3621 21.4645 22.2852 21.4967 22.2186H21.4953ZM26.7352 25.9698V27.7418C26.7352 27.793 26.6942 27.834 26.643 27.8326C26.1841 27.8252 24.1171 27.7454 22.894 26.9535C21.8415 26.2699 21.6534 25.737 21.6226 25.5226C21.6153 25.4691 21.6585 25.4201 21.7134 25.4201H25.742C25.7559 25.4201 25.7698 25.4237 25.783 25.4303L26.6847 25.8878C26.7154 25.9032 26.7345 25.9354 26.7345 25.9698H26.7352ZM47.0259 45.3397C46.6183 45.5659 42.4528 47.8839 39.7263 49.8309C37.0533 51.7398 32.9786 55.5063 32.4333 56.0121C32.4333 56.0121 32.4311 56.0143 32.426 56.0194C32.4121 56.0319 32.3836 56.0567 32.366 56.0553C32.3484 56.0553 32.3162 56.0282 32.3074 56.0209L32.306 56.0194L32.2972 56.0106C31.7475 55.4997 27.6757 51.7383 25.0056 49.8302C22.2792 47.8832 18.1137 45.5652 17.706 45.339C17.6885 45.3302 17.6841 45.3068 17.6973 45.2914C17.9271 44.9935 19.8191 42.5049 20.5884 39.6797C21.3394 36.9195 22.2045 32.5191 22.3436 31.804C22.3502 31.7733 22.3919 31.7682 22.4051 31.7974C22.6437 32.334 23.8543 35.045 24.4135 36.1364C25.0166 37.314 26.4922 39.7089 26.5793 39.8495C26.583 39.8546 26.5844 39.8583 26.5844 39.8648L26.7659 44.6546C26.7659 44.6634 26.7638 44.67 26.7586 44.6766C26.6898 44.7556 26.1936 45.3397 26.2499 45.806C26.3114 46.3066 27.006 48.438 27.1444 48.9145C27.1458 48.9167 27.1458 48.9196 27.1458 48.9218L27.1766 49.582V49.5886C27.189 49.6347 27.3683 50.2671 28.2994 50.3118C28.3316 50.3132 28.3455 50.2722 28.3198 50.2539C28.1588 50.1339 27.8251 49.8565 27.768 49.5703C27.6926 49.1912 27.708 49.0309 27.6238 48.7959C27.5411 48.561 26.774 46.0936 26.7513 45.7833C26.7308 45.4905 27.1575 44.8427 27.2102 44.7659C27.2139 44.7593 27.2154 44.7542 27.2139 44.7483L27.1129 39.8634C27.1114 39.8568 27.1114 39.8531 27.1078 39.848C27.0273 39.7097 25.6717 37.3997 24.8922 35.8385C24.0871 34.2297 23.7987 33.7751 23.2819 32.5909C22.8194 31.5281 22.0991 29.0593 21.9571 28.5638C21.9483 28.5359 21.9798 28.5111 22.0054 28.5294C22.3224 28.7453 23.6091 29.5694 24.9515 29.6617C26.2038 29.7473 26.5969 29.7693 26.7023 29.7744C26.7213 29.7744 26.7352 29.7605 26.7352 29.7414V27.8809C26.7352 27.8582 26.7579 27.8413 26.7799 27.8501C26.9789 27.9343 27.8302 28.3332 28.7846 29.3272C29.8569 30.4441 30.1621 32.1063 30.1738 32.1729V44.6136C30.1738 44.6239 30.179 44.6327 30.1877 44.6393L32.347 46.2071C32.3521 46.2107 32.3572 46.2173 32.3572 46.2246H32.3748C32.3748 46.2173 32.3799 46.2107 32.385 46.2071L34.5442 44.6393C34.553 44.6327 34.5581 44.6239 34.5581 44.6136V32.1729C34.5699 32.1063 34.8751 30.4441 35.9474 29.3272C36.9018 28.3332 37.753 27.9343 37.9521 27.8501C37.9741 27.8413 37.9968 27.8574 37.9968 27.8809V29.7414C37.9968 29.7605 38.0107 29.7744 38.0297 29.7744C38.1344 29.7693 38.5282 29.7473 39.7805 29.6617C41.1236 29.5694 42.4104 28.7453 42.7265 28.5294C42.7522 28.5118 42.7844 28.5359 42.7749 28.5638C42.6329 29.0593 41.9126 31.5281 41.4501 32.5909C40.934 33.7751 40.6449 34.2304 39.8405 35.8385C39.061 37.3997 37.7055 39.7097 37.625 39.848C37.6213 39.8531 37.6213 39.8568 37.6198 39.8634L37.5188 44.7483C37.5174 44.7549 37.5188 44.76 37.5225 44.7659C37.5752 44.8427 38.0019 45.4905 37.9814 45.7833C37.9587 46.0936 37.1916 48.561 37.1089 48.7959C37.0248 49.0309 37.0401 49.1904 36.9647 49.5703C36.9069 49.8565 36.5739 50.1339 36.4129 50.2539C36.3872 50.2715 36.4012 50.3125 36.4334 50.3118C37.3651 50.2671 37.5437 49.6347 37.5561 49.5886V49.582L37.5869 48.9218C37.5869 48.9218 37.5869 48.9167 37.5884 48.9145C37.7267 48.438 38.4213 46.3066 38.4828 45.806C38.5391 45.3397 38.0436 44.7556 37.9741 44.6766C37.969 44.67 37.9668 44.6642 37.9668 44.6546L38.1483 39.8648C38.1483 39.8583 38.1498 39.8546 38.1534 39.8495C38.2405 39.7089 39.7161 37.3148 40.3192 36.1364C40.8791 35.045 42.089 32.334 42.3276 31.7974C42.3401 31.7682 42.3825 31.7733 42.3891 31.804C42.5282 32.5199 43.3933 36.9203 44.1443 39.6797C44.9136 42.5049 46.8056 44.9935 47.0355 45.2914C47.0479 45.3068 47.0442 45.3295 47.0267 45.339L47.0259 45.3397Z" fill="currentColor"/>
<path d="M36.4585 46.8328C36.457 46.6308 36.4563 46.4288 36.4534 46.2275C36.4519 46.1543 36.4585 46.0797 36.4468 46.0101C36.4351 45.9421 36.4087 45.8813 36.3436 45.8323C36.2565 45.7686 36.1401 45.7547 36.0347 45.7744C35.93 45.7949 35.829 45.8498 35.7675 45.9369C35.7024 46.0277 35.6848 46.1426 35.6394 46.2436C35.5502 46.4471 35.365 46.5832 35.1805 46.6945C34.9836 46.816 34.797 46.9587 34.6455 47.1351C34.4727 47.3357 34.3373 47.6197 34.5189 47.8568C34.704 48.0983 35.0122 48.124 35.2918 48.08C35.5194 48.0442 35.7749 47.9878 35.9776 47.8744C36.0954 47.8092 36.1987 47.7082 36.2411 47.5801C36.2938 47.4169 36.2448 47.2208 36.3443 47.0817C36.3765 47.0356 36.4234 46.999 36.4439 46.9463C36.4578 46.9104 36.4578 46.8709 36.4578 46.8314L36.4585 46.8328Z" fill="currentColor"/>
<path d="M96.1052 28.5375C96.1563 28.5375 96.2004 28.5004 96.2073 28.4493C96.6601 25.8189 96.3699 23.929 95.3414 22.7798C94.2989 21.6143 92.3464 21.0293 89.4862 21.0293H88.7479C85.7089 21.0293 83.3895 21.7745 81.7922 23.265C80.1949 24.7555 79.0922 27.2002 78.4932 30.5968L78.3516 31.4024C77.7479 34.799 77.9824 37.2437 79.0527 38.7342C80.1276 40.2247 82.1823 40.9699 85.2167 40.9699H85.955C88.8199 40.9699 90.9767 40.3849 92.4323 39.224C93.8602 38.0771 94.8213 36.178 95.3065 33.5314C95.3182 33.4687 95.2694 33.406 95.2044 33.406H90.5657C90.517 33.406 90.4752 33.4431 90.4659 33.4919C90.2662 34.5552 89.8576 35.3005 89.2401 35.7276C88.6086 36.1688 87.6637 36.3893 86.3984 36.3893C84.8498 36.3893 83.8701 36.0178 83.4476 35.2726C83.025 34.5273 83.0018 33.1042 83.371 31.0054C83.7447 28.902 84.2718 27.4788 84.9566 26.7336C85.6462 25.9883 86.7606 25.6169 88.3045 25.6169C89.5698 25.6169 90.4404 25.8328 90.9186 26.2623C91.376 26.6779 91.5246 27.3952 91.3644 28.4214C91.3551 28.4841 91.4015 28.5421 91.4642 28.5421H96.1029L96.1052 28.5375Z" fill="currentColor"/>
<path d="M127.742 21.3216L121.088 35.7297C121.044 35.8249 120.902 35.8017 120.891 35.6972L119.347 21.3541C119.342 21.3007 119.298 21.2612 119.245 21.2612H114.239C114.176 21.2612 114.128 21.3169 114.137 21.3773L116.744 40.6493C116.751 40.7004 116.795 40.7398 116.846 40.7398H123.542C123.581 40.7398 123.616 40.7166 123.635 40.6818L133.07 21.4098C133.102 21.3402 133.054 21.2612 132.977 21.2612H127.835C127.795 21.2612 127.758 21.2844 127.742 21.3216Z" fill="currentColor"/>
<path d="M143.385 21.2612H136.585C136.546 21.2612 136.511 21.2844 136.492 21.3193L127.008 40.5913C126.973 40.6609 127.024 40.7398 127.101 40.7398H132.058C132.097 40.7398 132.134 40.7166 132.151 40.6795L133.458 37.8749C133.474 37.8378 133.511 37.8146 133.551 37.8146H138.403C138.463 37.8146 138.51 37.7635 138.505 37.7031L138.154 33.4986C138.15 33.4452 138.106 33.4034 138.052 33.4034H135.696C135.619 33.4034 135.57 33.3245 135.603 33.2572L139.055 25.8442H139.478L140.33 33.4034L140.813 37.8146L141.126 40.647C141.131 40.7004 141.177 40.7398 141.228 40.7398H146.05C146.113 40.7398 146.162 40.6841 146.153 40.6214L143.49 21.3495C143.483 21.2984 143.439 21.2612 143.387 21.2612H143.385Z" fill="currentColor"/>
<path d="M153.285 36.1476L155.902 21.382C155.913 21.3193 155.865 21.2612 155.799 21.2612H151.163C151.112 21.2612 151.07 21.2961 151.061 21.3471L147.648 40.6191C147.637 40.6818 147.685 40.7398 147.75 40.7398H161.344C161.395 40.7398 161.436 40.705 161.446 40.6539L162.2 36.3891C162.212 36.3264 162.163 36.2684 162.098 36.2684H153.387C153.322 36.2684 153.274 36.2103 153.285 36.1476Z" fill="currentColor"/>
<path d="M181.699 23.265C180.618 21.7745 178.542 21.0293 175.47 21.0293H174.732C171.656 21.0293 169.318 21.7745 167.709 23.265C166.105 24.7555 164.997 27.2002 164.399 30.5968L164.257 31.4024C163.653 34.799 163.892 37.2437 164.974 38.7342C166.052 40.2247 168.127 40.9699 171.203 40.9699H171.942C175.013 40.9699 177.356 40.2247 178.96 38.7342C180.569 37.2437 181.672 34.799 182.275 31.4024L182.417 30.5968C183.016 27.2002 182.777 24.7555 181.699 23.265ZM177.39 31.0008C177.014 33.1367 176.473 34.59 175.777 35.3515C175.08 36.1177 173.94 36.4984 172.359 36.4984C170.778 36.4984 169.773 36.1177 169.348 35.3515C168.923 34.59 168.898 33.1367 169.276 31.0008C169.652 28.8625 170.193 27.4115 170.89 26.6454C171.586 25.8792 172.726 25.4985 174.307 25.4985C175.888 25.4985 176.894 25.8792 177.318 26.6454C177.748 27.4115 177.774 28.8602 177.39 31.0008Z" fill="currentColor"/>
<path d="M213.301 36.1476L215.917 21.382C215.929 21.3193 215.88 21.2612 215.815 21.2612H211.179C211.128 21.2612 211.086 21.2961 211.077 21.3471L207.664 40.6191C207.652 40.6818 207.701 40.7398 207.766 40.7398H221.359C221.41 40.7398 221.452 40.705 221.461 40.6539L222.216 36.3891C222.228 36.3264 222.179 36.2684 222.114 36.2684H213.403C213.338 36.2684 213.289 36.2103 213.301 36.1476Z" fill="currentColor"/>
<path d="M238.631 21.2612H231.831C231.792 21.2612 231.757 21.2844 231.738 21.3193L222.254 40.5913C222.219 40.6609 222.271 40.7398 222.347 40.7398H227.304C227.343 40.7398 227.381 40.7166 227.397 40.6795L228.704 37.8749C228.72 37.8378 228.757 37.8146 228.797 37.8146H233.649C233.709 37.8146 233.756 37.7635 233.751 37.7031L233.401 33.4986C233.396 33.4452 233.352 33.4034 233.298 33.4034H230.937C230.861 33.4034 230.812 33.3245 230.844 33.2572L234.301 25.8442H234.724L235.571 33.4034L236.057 37.8146L236.37 40.647C236.375 40.7004 236.421 40.7398 236.472 40.7398H241.294C241.357 40.7398 241.406 40.6841 241.396 40.6214L238.733 21.3495C238.726 21.2984 238.682 21.2612 238.631 21.2612Z" fill="currentColor"/>
<path d="M242.087 21.3477L241.33 25.608C241.318 25.6706 241.367 25.7287 241.432 25.7287H246.454C246.519 25.7287 246.567 25.7867 246.556 25.8494L243.944 40.6197C243.932 40.6824 243.981 40.7405 244.046 40.7405H248.682C248.734 40.7405 248.775 40.7056 248.785 40.6546L251.408 25.8123C251.417 25.7635 251.459 25.7264 251.51 25.7264H256.606C256.657 25.7264 256.699 25.6915 256.708 25.6405L257.465 21.3803C257.477 21.3176 257.428 21.2595 257.363 21.2595H242.189C242.138 21.2595 242.096 21.2943 242.087 21.3454V21.3477Z" fill="currentColor"/>
<path d="M268.942 21.2612H262.142C262.102 21.2612 262.067 21.2844 262.049 21.3193L252.565 40.5913C252.53 40.6609 252.581 40.7398 252.658 40.7398H257.614C257.654 40.7398 257.691 40.7166 257.707 40.6795L259.042 37.8146H259.021L261.069 33.4034H261.085L264.612 25.8442H265.034L265.873 33.2897C265.88 33.35 265.831 33.4034 265.77 33.4034H263.221C263.179 33.4034 263.14 33.429 263.126 33.4685L261.473 37.673C261.447 37.7403 261.496 37.8146 261.568 37.8146H266.277C266.33 37.8146 266.374 37.854 266.379 37.9074L266.683 40.6493C266.687 40.7027 266.734 40.7422 266.785 40.7422H271.607C271.67 40.7422 271.718 40.6864 271.709 40.6238L269.046 21.3518C269.039 21.3007 268.995 21.2636 268.944 21.2636L268.942 21.2612Z" fill="currentColor"/>
<path d="M187.229 35.9015L188.327 26.9632C188.331 26.9284 188.361 26.9028 188.396 26.9028H192.195C193.618 26.9028 194.6 27.2371 195.143 27.9035C195.684 28.5721 195.858 29.6888 195.665 31.2536L195.619 31.6274C195.426 33.1945 194.978 34.3112 194.272 34.9775C193.567 35.6438 192.503 35.9782 191.08 35.9782H187.3C187.259 35.9782 187.226 35.941 187.231 35.9015H187.229ZM191.194 33.8446C191.939 33.8446 192.455 33.6913 192.742 33.3849C193.03 33.0784 193.237 32.4307 193.358 31.4416C193.478 30.4526 193.432 29.8072 193.221 29.4984C193.007 29.192 192.529 29.0388 191.784 29.0388H190.388C190.353 29.0388 190.323 29.0643 190.319 29.0991L189.745 33.7656C189.741 33.8074 189.773 33.8422 189.815 33.8422H191.194V33.8446Z" fill="currentColor"/>
<path d="M196.015 35.9015L197.113 26.9632C197.118 26.9284 197.148 26.9028 197.183 26.9028H203.523C203.565 26.9028 203.598 26.94 203.593 26.9795L203.363 28.8437C203.358 28.8786 203.328 28.9041 203.293 28.9041H199.193C199.159 28.9041 199.128 28.9296 199.124 28.9645L198.957 30.3342C198.952 30.376 198.984 30.4108 199.026 30.4108H202.899C202.941 30.4108 202.973 30.448 202.968 30.4875L202.746 32.2983C202.741 32.3332 202.711 32.3587 202.676 32.3587H198.769C198.734 32.3587 198.704 32.3842 198.699 32.4191L198.518 33.8956C198.513 33.9374 198.546 33.9722 198.587 33.9722H202.704C202.746 33.9722 202.778 34.0094 202.773 34.0489L202.544 35.9131C202.539 35.948 202.509 35.9735 202.474 35.9735H196.085C196.043 35.9735 196.01 35.9364 196.015 35.8969V35.9015Z" fill="currentColor"/>
<path d="M111.062 21.2612H104.262C104.222 21.2612 104.187 21.2844 104.169 21.3193L94.685 40.5913C94.6502 40.6609 94.7012 40.7398 94.7778 40.7398H99.7346C99.774 40.7398 99.8112 40.7166 99.8274 40.6795L101.162 37.8146L103.21 33.4034L106.732 25.8442H107.155L107.993 33.2897C108 33.35 107.951 33.4034 107.891 33.4034H105.358C105.316 33.4034 105.276 33.429 105.262 33.4685L103.614 37.673C103.588 37.7403 103.637 37.8146 103.709 37.8146H108.397C108.45 37.8146 108.494 37.854 108.499 37.9074L108.803 40.6493C108.808 40.7027 108.854 40.7422 108.905 40.7422H113.727C113.79 40.7422 113.839 40.6864 113.829 40.6238L111.166 21.3518C111.159 21.3007 111.115 21.2636 111.064 21.2636L111.062 21.2612Z" fill="currentColor"/>
</svg>
